<svg height="128" viewBox="0 0 128 128" width="128" xmlns="http://www.w3.org/2000/svg"><path d="M74.508 108.239a2 2 0 0 1-1.81-1.148l-16.863-35.84-35.103-16.135a2.001 2.001 0 0 1 .136-3.691l83.312-31.107a2.002 2.002 0 0 1 2.58 2.554l-30.371 84.047a1.998 1.998 0 0 1-1.788 1.318l-.093.002zM26.772 53.49l31.396 14.432c.429.197.774.539.975.965l15.122 32.139 27.264-75.448L26.772 53.49z"/><path d="M57.334 71.738a2 2 0 0 1-1.414-3.414l47.545-47.546a2 2 0 1 1 2.828 2.828L58.748 71.152a1.992 1.992 0 0 1-1.414.586z"/></svg>