<svg xmlns="http://www.w3.org/2000/svg" viewBox="0 0 197.696 197.696"><path d="M179.546 73.358L73.111 179.783c-13.095 13.095-34.4 13.095-47.481.007-13.095-13.095-13.095-34.396 0-47.495l13.725-13.739 92.696-92.689 11.166-11.159c8.829-8.833 23.195-8.833 32.038 0 8.829 8.836 8.829 23.209 0 32.041L145.79 76.221l-74.383 74.383-1.714 1.714c-4.42 4.413-11.606 4.42-16.026 0-4.42-4.413-4.42-11.599 0-16.019l76.101-76.097a4.044 4.044 0 0 0 0-5.723 4.044 4.044 0 0 0-5.723 0L47.948 130.58c-7.58 7.573-7.58 19.895 0 27.464 7.566 7.573 19.884 7.566 27.464 0l1.714-1.714 74.383-74.383 29.465-29.472c11.989-11.989 12-31.494 0-43.487-11.986-11.986-31.49-11.986-43.487 0l-11.152 11.159L33.64 112.84l-13.725 13.732c-16.252 16.244-16.252 42.685 0 58.937 16.241 16.252 42.678 16.248 58.929 0L185.265 79.081a4.034 4.034 0 0 0 0-5.719 4.037 4.037 0 0 0-5.719-.004z" fill="#010002"/></svg>